<svg width="36" height="36" viewBox="0 0 36 36" fill="none" xmlns="http://www.w3.org/2000/svg">
<path d="M26.4314 8.62529H25.6568L27.669 6.54914C27.787 6.42735 27.8495 6.26586 27.8426 6.10022C27.8357 5.93457 27.7599 5.77832 27.6321 5.66585C27.5042 5.55338 27.3346 5.4939 27.1607 5.5005C26.9868 5.50709 26.8228 5.57921 26.7047 5.70101L23.8708 8.62529H9.56806C7.75997 8.62529 6.82439 10.6463 8.06601 11.8782L9.71929 13.6252L17.3438 21.6818V29.25H14.0629C13.8889 29.25 13.722 29.3159 13.5989 29.4331C13.4759 29.5503 13.4067 29.7092 13.4067 29.875C13.4067 30.0408 13.4759 30.1997 13.5989 30.3169C13.722 30.4342 13.8889 30.5 14.0629 30.5H21.9371C22.1111 30.5 22.278 30.4342 22.4011 30.3169C22.5242 30.1997 22.5933 30.0408 22.5933 29.875C22.5933 29.7092 22.5242 29.5503 22.4011 29.4331C22.278 29.3159 22.1111 29.25 21.9371 29.25H18.6562V21.6818L26.2807 13.6252L27.934 11.8782C29.1756 10.6463 28.24 8.62529 26.4314 8.62529ZM18 20.5079L12.6685 14.8752H17.4556C17.5913 15.2408 17.8426 15.5573 18.175 15.7812C18.5074 16.0051 18.9045 16.1253 19.3116 16.1253C19.7187 16.1253 20.1158 16.0051 20.4482 15.7812C20.7806 15.5573 21.032 15.2408 21.1676 14.8752H23.3315L18 20.5079ZM18.6562 14.2502C18.6562 14.1266 18.6947 14.0058 18.7668 13.903C18.8389 13.8002 18.9414 13.7201 19.0613 13.6728C19.1812 13.6255 19.3131 13.6131 19.4404 13.6372C19.5677 13.6613 19.6846 13.7209 19.7764 13.8083C19.8681 13.8957 19.9306 14.007 19.9559 14.1283C19.9813 14.2495 19.9683 14.3752 19.9186 14.4894C19.8689 14.6036 19.7848 14.7012 19.6769 14.7699C19.569 14.8385 19.4422 14.8752 19.3124 14.8752C19.1384 14.8751 18.9716 14.8092 18.8485 14.692C18.7255 14.5748 18.6563 14.4159 18.6562 14.2502ZM26.9866 11.0129L26.9728 11.0266L26.9595 11.0408L24.5142 13.6247H21.1687C21.033 13.2591 20.7816 12.9426 20.4492 12.7187C20.1168 12.4948 19.7197 12.3746 19.3126 12.3746C18.9055 12.3746 18.5084 12.4948 18.176 12.7187C17.8436 12.9426 17.5923 13.2591 17.4566 13.6247H11.4864L9.04106 11.0408L9.02773 11.0266L9.01389 11.0129C8.91557 10.9228 8.84912 10.8057 8.82377 10.678C8.79842 10.5503 8.81541 10.4182 8.8724 10.3001C8.92892 10.1698 9.02601 10.0592 9.15059 9.98317C9.27516 9.90712 9.42123 9.86929 9.56908 9.87478H26.4314C26.5793 9.86929 26.7254 9.90712 26.8499 9.98317C26.9745 10.0592 27.0716 10.1698 27.1281 10.3001C27.1851 10.4182 27.2021 10.5503 27.1768 10.678C27.1514 10.8057 27.085 10.9228 26.9866 11.0129Z" fill="white"/>
</svg>
