<svg width="29" height="29" viewBox="0 0 29 29" fill="none" xmlns="http://www.w3.org/2000/svg">
<path d="M5.41064 14.9237C5.41064 13.6617 5.41064 13.0307 5.48193 12.5011C5.96116 8.94108 8.76139 6.14084 12.3214 5.66162C12.851 5.59033 13.482 5.59033 14.744 5.59033V5.59033C16.006 5.59033 16.637 5.59033 17.1665 5.66162C20.7266 6.14084 23.5268 8.94108 24.006 12.5011C24.0773 13.0307 24.0773 13.6617 24.0773 14.9237V20.8631C24.0773 22.3881 24.0773 23.1506 23.6389 23.6517C23.5871 23.711 23.5313 23.7668 23.472 23.8186C22.9709 24.257 22.2084 24.257 20.6834 24.257H14.744C13.482 24.257 12.851 24.257 12.3214 24.1857C8.76139 23.7065 5.96116 20.9063 5.48193 17.3462C5.41064 16.8167 5.41064 16.1857 5.41064 14.9237V14.9237Z" stroke="white" stroke-width="0.886076"/>
<path d="M11.2441 13.7573L18.2441 13.7573" stroke="white" stroke-width="0.886076" stroke-linecap="round" stroke-linejoin="round"/>
<path d="M14.7441 18.4238H18.2441" stroke="white" stroke-width="0.886076" stroke-linecap="round" stroke-linejoin="round"/>
</svg>
