<svg width="28" height="28" viewBox="0 0 28 28" fill="none" xmlns="http://www.w3.org/2000/svg">
<path d="M17.5005 6.91406C17.8606 6.91415 18.1528 7.06617 18.4155 7.2666C18.6669 7.4584 18.9447 7.73721 19.2681 8.06055L19.9399 8.73242C20.2631 9.05563 20.5422 9.33268 20.7339 9.58398C20.9345 9.8469 21.0864 10.1396 21.0864 10.5C21.0864 10.8604 20.9345 11.1531 20.7339 11.416C20.5422 11.6673 20.2631 11.9444 19.9399 12.2676L11.2456 20.9619C11.0697 21.1378 10.919 21.2942 10.728 21.4023C10.5372 21.5104 10.3256 21.5589 10.0845 21.6191L6.76318 22.4492C6.59899 22.4903 6.42051 22.5362 6.27197 22.5508C6.11728 22.5659 5.85636 22.5628 5.64697 22.3535C5.43771 22.1443 5.43363 21.8833 5.44873 21.7285C5.46325 21.5801 5.50927 21.4014 5.55029 21.2373L6.38037 17.916C6.44069 17.6748 6.49003 17.4634 6.59814 17.2725C6.70629 17.0815 6.86269 16.9308 7.03857 16.7549L15.7319 8.06055C16.0553 7.73721 16.3331 7.4584 16.5845 7.2666C16.8474 7.06603 17.1401 6.91406 17.5005 6.91406Z" stroke="#FFFFE6"/>
<path d="M14.5835 8.74996L18.0835 6.41663L21.5835 9.91663L19.2502 13.4166L14.5835 8.74996Z" fill="#FFFFE6"/>
</svg>
