<svg width="41" height="41" viewBox="0 0 41 41" fill="none" xmlns="http://www.w3.org/2000/svg">
<rect x="0.5" y="0.10498" width="40" height="40" rx="20" fill="white"/>
<path fill-rule="evenodd" clip-rule="evenodd" d="M32.84 20.4004C32.84 19.4786 32.7573 18.5922 32.6036 17.7413H20.36V22.77H27.3563C27.055 24.395 26.1391 25.7718 24.7623 26.6936V29.9554H28.9636C31.4218 27.6922 32.84 24.3595 32.84 20.4004Z" fill="#4285F4"/>
<path fill-rule="evenodd" clip-rule="evenodd" d="M20.3601 33.1049C23.8701 33.1049 26.8128 31.9409 28.9637 29.9554L24.7623 26.6936C23.5982 27.4736 22.1092 27.9345 20.3601 27.9345C16.9742 27.9345 14.1083 25.6477 13.086 22.575H8.7428V25.9431C10.8819 30.1918 15.2783 33.1049 20.3601 33.1049Z" fill="#34A853"/>
<path fill-rule="evenodd" clip-rule="evenodd" d="M13.0859 22.575C12.8259 21.795 12.6782 20.9618 12.6782 20.105C12.6782 19.2482 12.8259 18.415 13.0859 17.635V14.2668H8.74271C7.86226 16.0218 7.35999 18.0073 7.35999 20.105C7.35999 22.2028 7.86226 24.1882 8.74271 25.9432L13.0859 22.575Z" fill="#FBBC05"/>
<path fill-rule="evenodd" clip-rule="evenodd" d="M20.3601 12.2754C22.2687 12.2754 23.9823 12.9313 25.3296 14.2195L29.0582 10.4909C26.8069 8.39316 23.8642 7.10498 20.3601 7.10498C15.2783 7.10498 10.8819 10.0182 8.7428 14.2668L13.086 17.635C14.1083 14.5623 16.9742 12.2754 20.3601 12.2754Z" fill="#EA4335"/>
</svg>
