<svg width="24" height="25" viewBox="0 0 24 25" fill="none" xmlns="http://www.w3.org/2000/svg">
<path d="M21 3.85938C21.9994 5.04334 22 6.92341 22 10.5V14.5C22 18.2712 21.9997 20.1566 20.8281 21.3281C19.6566 22.4997 17.7712 22.5 14 22.5H10C6.22876 22.5 4.34345 22.4997 3.17188 21.3281C2.0003 20.1566 2 18.2712 2 14.5V10.5C2 6.92341 2.00063 5.04334 3 3.85938V16L4.91016 14.0898C6.25562 12.7444 6.92844 12.0713 7.65723 12.0098C8.0241 11.9788 8.39254 12.0499 8.72168 12.2148C9.37555 12.5426 9.75036 13.4178 10.5 15.167L10.5537 15.291C10.8796 16.0515 11.0423 16.4323 11.3105 16.5986C11.5191 16.7277 11.7682 16.7757 12.0098 16.7334C12.3207 16.6788 12.6139 16.3861 13.1992 15.8008L13.3125 15.6875C14.0337 14.9663 14.3948 14.6061 14.8037 14.4541C15.253 14.2872 15.747 14.2872 16.1963 14.4541C16.6052 14.6061 16.9663 14.9663 17.6875 15.6875L18.4395 16.4395C19.1186 17.1185 20.0396 17.5 21 17.5V3.85938Z" fill="white"/>
<path d="M10 3H14C15.8996 3 17.2741 3.00071 18.3223 3.1416C19.3561 3.28059 19.9972 3.54799 20.4746 4.02539C20.952 4.50279 21.2194 5.14392 21.3584 6.17773C21.4993 7.2259 21.5 8.6004 21.5 10.5V14.5C21.5 16.3996 21.4993 17.7741 21.3584 18.8223C21.2194 19.8561 20.952 20.4972 20.4746 20.9746C19.9972 21.452 19.3561 21.7194 18.3223 21.8584C17.2741 21.9993 15.8996 22 14 22H10C8.1004 22 6.7259 21.9993 5.67773 21.8584C4.64392 21.7194 4.00279 21.452 3.52539 20.9746C3.04799 20.4972 2.78059 19.8561 2.6416 18.8223C2.50071 17.7741 2.5 16.3996 2.5 14.5V10.5C2.5 8.6004 2.50071 7.2259 2.6416 6.17773C2.78059 5.14392 3.04799 4.50279 3.52539 4.02539C4.00279 3.54799 4.64392 3.28059 5.67773 3.1416C6.7259 3.00071 8.1004 3 10 3Z" stroke="white"/>
<circle cx="15" cy="9.5" r="1.5" stroke="white" stroke-linecap="round"/>
</svg>
