<svg width="36" height="36" viewBox="0 0 36 36" fill="currentColor" xmlns="http://www.w3.org/2000/svg">
<g clip-path="url(#clip0_418_213)">
<g filter="url(#filter0_d_418_213)">
<path d="M6.67601 20.3623L17.3153 30.3568C17.6398 30.6616 17.802 30.814 18 30.814C18.198 30.814 18.3602 30.6616 18.6847 30.3568L29.324 20.3623C32.2582 17.6059 32.6146 13.0699 30.1467 9.8891L29.6827 9.29102C26.7304 5.48587 20.8044 6.12402 18.73 10.4705C18.437 11.0844 17.563 11.0844 17.27 10.4705C15.1956 6.12402 9.26958 5.48587 6.31732 9.29102L5.85328 9.8891C3.38542 13.0699 3.74174 17.6059 6.67601 20.3623Z" fill="white" fill-opacity="0.5" shape-rendering="crispEdges"/>
<path d="M6.67601 20.3623L17.3153 30.3568C17.6398 30.6616 17.802 30.814 18 30.814C18.198 30.814 18.3602 30.6616 18.6847 30.3568L29.324 20.3623C32.2582 17.6059 32.6146 13.0699 30.1467 9.8891L29.6827 9.29102C26.7304 5.48587 20.8044 6.12402 18.73 10.4705C18.437 11.0844 17.563 11.0844 17.27 10.4705C15.1956 6.12402 9.26958 5.48587 6.31732 9.29102L5.85328 9.8891C3.38542 13.0699 3.74174 17.6059 6.67601 20.3623Z" stroke="#1A1A1A" stroke-width="1.2" shape-rendering="crispEdges"/>
</g>
</g>
<defs>
<filter id="filter0_d_418_213" x="-4.38525" y="-1.81409" width="44.7705" height="41.228" filterUnits="userSpaceOnUse" color-interpolation-filters="sRGB">
<feFlood flood-opacity="0" result="BackgroundImageFix"/>
<feColorMatrix in="SourceAlpha" type="matrix" values="0 0 0 0 0 0 0 0 0 0 0 0 0 0 0 0 0 0 127 0" result="hardAlpha"/>
<feOffset/>
<feGaussianBlur stdDeviation="4"/>
<feComposite in2="hardAlpha" operator="out"/>
<feColorMatrix type="matrix" values="0 0 0 0 1 0 0 0 0 1 0 0 0 0 1 0 0 0 1 0"/>
<feBlend mode="normal" in2="BackgroundImageFix" result="effect1_dropShadow_418_213"/>
<feBlend mode="normal" in="SourceGraphic" in2="effect1_dropShadow_418_213" result="shape"/>
</filter>
<clipPath id="clip0_418_213">
<rect width="36" height="36" fill="white"/>
</clipPath>
</defs>
</svg>
