<svg width="36" height="36" viewBox="0 0 36 36" fill="none" xmlns="http://www.w3.org/2000/svg">
<g clip-path="url(#clip0_418_283)">
<g filter="url(#filter0_d_418_283)">
<path d="M6.67601 20.3623L17.3153 30.3568C17.6398 30.6616 17.802 30.814 18 30.814C18.198 30.814 18.3602 30.6616 18.6847 30.3568L29.324 20.3623C32.2582 17.6059 32.6146 13.0699 30.1467 9.8891L29.6827 9.29102C26.7304 5.48587 20.8044 6.12402 18.73 10.4705C18.437 11.0844 17.563 11.0844 17.27 10.4705C15.1956 6.12402 9.26958 5.48587 6.31732 9.29102L5.85328 9.8891C3.38542 13.0699 3.74174 17.6059 6.67601 20.3623Z" fill="#FFFFE6"/>
<path d="M6.67601 20.3623L17.3153 30.3568C17.6398 30.6616 17.802 30.814 18 30.814C18.198 30.814 18.3602 30.6616 18.6847 30.3568L29.324 20.3623C32.2582 17.6059 32.6146 13.0699 30.1467 9.8891L29.6827 9.29102C26.7304 5.48587 20.8044 6.12402 18.73 10.4705C18.437 11.0844 17.563 11.0844 17.27 10.4705C15.1956 6.12402 9.26958 5.48587 6.31732 9.29102L5.85328 9.8891C3.38542 13.0699 3.74174 17.6059 6.67601 20.3623Z" stroke="#1A1A1A" stroke-width="1.2"/>
</g>
<path d="M12.3813 16.728L13.2139 18.0332C13.3177 18.1943 13.3696 18.3268 13.3696 18.4307C13.3696 18.5954 13.2998 18.744 13.1602 18.8765C13.0241 19.009 12.8701 19.0752 12.6982 19.0752C12.5479 19.0752 12.4172 18.9946 12.3062 18.8335L12.2417 18.7368L10.9956 16.873L10.394 18.3608C10.2007 18.8371 9.91781 19.0752 9.54541 19.0752C9.39144 19.0752 9.26074 19.0286 9.15332 18.9355C9.04948 18.8389 8.99756 18.7225 8.99756 18.5864C8.99756 18.4826 9.0262 18.3626 9.0835 18.2266L9.14258 18.0815L11.4414 12.415L11.5005 12.27C11.6652 11.869 11.9284 11.6685 12.29 11.6685C12.4404 11.6685 12.5693 11.7186 12.6768 11.8188C12.7842 11.9191 12.8379 12.0391 12.8379 12.1787C12.8379 12.2861 12.8092 12.4097 12.752 12.5493L12.6929 12.6943L11.3232 16.0674L12.5317 15.1704C12.7824 14.9842 12.9972 14.8911 13.1763 14.8911C13.3267 14.8911 13.452 14.9395 13.5522 15.0361C13.6525 15.1328 13.7026 15.2528 13.7026 15.396C13.7026 15.6359 13.5701 15.8543 13.3052 16.0513L13.1816 16.1426L12.3813 16.728ZM15.1313 17.4263C15.1313 17.6948 15.3337 17.8291 15.7383 17.8291H17.3335C17.7847 17.8291 18.0103 17.9884 18.0103 18.3071C18.0103 18.5256 17.9297 18.6956 17.7686 18.8174C17.611 18.9391 17.389 19 17.1025 19H15.5825C15.0168 19 14.5853 18.8604 14.2881 18.5811C13.9945 18.3018 13.8477 17.8936 13.8477 17.3564C13.8477 16.6654 14.0804 16.0692 14.5459 15.5679C15.015 15.0666 15.5718 14.8159 16.2163 14.8159C16.6854 14.8159 17.0614 14.9395 17.3442 15.1865C17.6307 15.43 17.7739 15.7523 17.7739 16.1533C17.7739 16.6367 17.577 16.9948 17.1831 17.2275C16.9647 17.36 16.6388 17.4263 16.2056 17.4263H15.1313ZM15.3892 16.4487H15.98C16.3631 16.4487 16.5493 16.3646 16.5386 16.1963C16.5278 16.0065 16.4043 15.9116 16.168 15.9116C15.8385 15.9116 15.5789 16.0907 15.3892 16.4487ZM19.5034 17.4263C19.5034 17.6948 19.7057 17.8291 20.1104 17.8291H21.7056C22.1567 17.8291 22.3823 17.9884 22.3823 18.3071C22.3823 18.5256 22.3018 18.6956 22.1406 18.8174C21.9831 18.9391 21.7611 19 21.4746 19H19.9546C19.3888 19 18.9574 18.8604 18.6602 18.5811C18.3665 18.3018 18.2197 17.8936 18.2197 17.3564C18.2197 16.6654 18.4525 16.0692 18.918 15.5679C19.387 15.0666 19.9438 14.8159 20.5884 14.8159C21.0575 14.8159 21.4334 14.9395 21.7163 15.1865C22.0028 15.43 22.146 15.7523 22.146 16.1533C22.146 16.6367 21.9491 16.9948 21.5552 17.2275C21.3368 17.36 21.0109 17.4263 20.5776 17.4263H19.5034ZM19.7612 16.4487H20.3521C20.7352 16.4487 20.9214 16.3646 20.9106 16.1963C20.8999 16.0065 20.7764 15.9116 20.54 15.9116C20.2106 15.9116 19.951 16.0907 19.7612 16.4487ZM23.752 18.5811L22.3501 22.0293C22.1567 22.5055 21.8739 22.7437 21.5015 22.7437C21.3582 22.7437 21.2365 22.6953 21.1362 22.5986C21.0324 22.5055 20.9805 22.3927 20.9805 22.2603C20.9805 22.1493 21.0252 21.981 21.1147 21.7554L23.7036 15.3745C23.8361 15.0522 24.0653 14.8911 24.3911 14.8911C24.6167 14.8911 24.7957 14.9985 24.9282 15.2134C25.1789 14.9484 25.485 14.8159 25.8467 14.8159C26.2227 14.8159 26.5252 14.9591 26.7544 15.2456C26.9871 15.5285 27.1035 15.9027 27.1035 16.3682C27.1035 17.249 26.8296 17.967 26.2817 18.522C26.1027 18.7046 25.9183 18.8299 25.7285 18.8979C25.5387 18.966 25.2738 19 24.9336 19C24.5684 19 24.3159 18.9749 24.1763 18.9248C24.0402 18.8747 23.8988 18.7601 23.752 18.5811ZM24.1924 17.4854C24.2819 17.6429 24.366 17.745 24.4448 17.7915C24.5272 17.8381 24.6561 17.8613 24.8315 17.8613C25.0858 17.8613 25.2845 17.7664 25.4277 17.5767C25.7178 17.1935 25.8628 16.7996 25.8628 16.395C25.8628 16.0477 25.6981 15.874 25.3687 15.874C25.007 15.874 24.7474 16.0835 24.5898 16.5024C24.5719 16.549 24.5576 16.5884 24.5469 16.6206L24.1924 17.4854Z" fill="black"/>
</g>
<defs>
<filter id="filter0_d_418_283" x="-4.38525" y="-1.81409" width="44.7705" height="41.228" filterUnits="userSpaceOnUse" color-interpolation-filters="sRGB">
<feFlood flood-opacity="0" result="BackgroundImageFix"/>
<feColorMatrix in="SourceAlpha" type="matrix" values="0 0 0 0 0 0 0 0 0 0 0 0 0 0 0 0 0 0 127 0" result="hardAlpha"/>
<feOffset/>
<feGaussianBlur stdDeviation="4"/>
<feComposite in2="hardAlpha" operator="out"/>
<feColorMatrix type="matrix" values="0 0 0 0 1 0 0 0 0 1 0 0 0 0 1 0 0 0 0.8 0"/>
<feBlend mode="normal" in2="BackgroundImageFix" result="effect1_dropShadow_418_283"/>
<feBlend mode="normal" in="SourceGraphic" in2="effect1_dropShadow_418_283" result="shape"/>
</filter>
<clipPath id="clip0_418_283">
<rect width="36" height="36" fill="white"/>
</clipPath>
</defs>
</svg>
