<svg width="36" height="36" viewBox="0 0 36 36" fill="none" xmlns="http://www.w3.org/2000/svg">
<path d="M23.9364 8.07627H22.2023L23.0603 2.43374C23.1241 2.01473 22.9287 1.60409 22.6241 1.51657C22.3194 1.42894 22.0208 1.69761 21.957 2.11651L21.0508 8.07627H12.0636C11.744 8.07627 11.4881 8.44175 11.5004 8.88122L12.1988 33.7549C12.2105 34.1709 12.4592 34.5 12.762 34.5H23.238C23.5408 34.5 23.7895 34.171 23.8012 33.7549L24.4996 8.88122C24.5119 8.44206 24.2561 8.07627 23.9364 8.07627ZM12.7462 13.0733L12.6494 9.62624H20.8151L20.291 13.0733H12.7462ZM22.6958 32.95H13.3043L12.7897 14.6233H23.2104L22.6958 32.95ZM23.2538 13.0733H21.4425L21.9666 9.62624H23.3507L23.2538 13.0733Z" fill="white"/>
<path d="M15 18V28" stroke="white" stroke-linecap="round"/>
</svg>
