<svg width="36" height="36" viewBox="0 0 36 36" fill="none" xmlns="http://www.w3.org/2000/svg">
<path d="M26.2051 7.26489C27.8609 6.71296 28.689 6.43725 29.126 6.87427C29.5627 7.31133 29.2872 8.13962 28.7354 9.79517L22.8975 27.3079C22.1131 29.6609 21.7207 30.838 21 30.8381C20.2792 30.8381 19.8869 29.6611 19.1025 27.3079L16.8535 20.5598L23.207 14.2073C23.5975 13.8168 23.5974 13.1838 23.207 12.7932C22.8165 12.4027 22.1835 12.4027 21.793 12.7932L15.4395 19.1467L8.69238 16.8977C6.33941 16.1134 5.16235 15.7209 5.16211 15.0002C5.16211 14.2795 6.33917 13.8872 8.69238 13.1028L26.2051 7.26489Z" fill="currentColor"/>
</svg>
