<svg width="29" height="29" viewBox="0 0 29 29" fill="currentColor" xmlns="http://www.w3.org/2000/svg">
<path d="M20.5 5C21.8807 5 23 6.11929 23 7.5C23 8.88071 21.8807 10 20.5 10C19.8181 10 19.2001 9.72687 18.749 9.28418L10.8545 13.668C10.9466 13.9286 11 14.2079 11 14.5C11 14.7918 10.9464 15.0707 10.8545 15.3311L18.749 19.7158C19.2001 19.2731 19.8181 19 20.5 19C21.8807 19 23 20.1193 23 21.5C23 22.8807 21.8807 24 20.5 24C19.1193 24 18 22.8807 18 21.5C18 21.1632 18.0668 20.8421 18.1875 20.5488L10.3389 16.1885C9.88192 16.6859 9.22867 17 8.5 17C7.11929 17 6 15.8807 6 14.5C6 13.1193 7.11929 12 8.5 12C9.22841 12 9.88194 12.3135 10.3389 12.8105L18.1875 8.45117C18.0668 8.15795 18 7.83678 18 7.5C18 6.11929 19.1193 5 20.5 5ZM20.5 20C19.6716 20 19 20.6716 19 21.5C19 22.3284 19.6716 23 20.5 23C21.3284 23 22 22.3284 22 21.5C22 20.6716 21.3284 20 20.5 20ZM8.5 13C7.67157 13 7 13.6716 7 14.5C7 15.3284 7.67157 16 8.5 16C9.32843 16 10 15.3284 10 14.5C10 13.6716 9.32843 13 8.5 13ZM20.5 6C19.6716 6 19 6.67157 19 7.5C19 8.32843 19.6716 9 20.5 9C21.3284 9 22 8.32843 22 7.5C22 6.67157 21.3284 6 20.5 6Z" fill="white"/>
</svg>
