<svg width="36" height="36" viewBox="0 0 36 36" fill="none" xmlns="http://www.w3.org/2000/svg">
<path d="M22.365 11.1505C22.32 11.0502 22.185 11 22.05 11H13.95C13.815 11 13.68 11.0502 13.635 11.1505C13.545 11.3011 13.5 11.4014 13.5 11.552L14.715 22.8423C14.805 24.0968 15.48 25 16.29 25H19.665C20.475 25 21.15 24.0968 21.24 22.8423L22.5 11.552C22.5 11.4014 22.455 11.3011 22.365 11.1505ZM20.43 22.0394H15.57L14.805 15.3656C14.985 15.0143 15.48 14.1111 16.29 13.7599C16.74 13.5591 17.235 13.6093 17.775 13.9104C19.305 14.7634 20.52 14.6129 21.24 14.3118L20.43 22.0394ZM21.555 12.0036L21.42 13.2079C21.015 13.4588 19.89 14.0108 18.225 13.0573C17.46 12.6559 16.74 12.5556 16.02 12.8566C15.435 13.0573 14.985 13.509 14.67 13.9104L14.445 12.0036H21.555ZM19.71 24.0466H16.335C16.065 24.0466 15.795 23.6452 15.705 23.043H20.385C20.25 23.6452 19.935 24.0466 19.71 24.0466Z" fill="white"/>
</svg>
