<svg width="36" height="36" viewBox="0 0 36 36" fill="none" xmlns="http://www.w3.org/2000/svg">
<path d="M9.44987 9.5C9.38679 9.50002 9.32441 9.51257 9.26679 9.53683C9.20917 9.5611 9.1576 9.59653 9.11541 9.64083C9.07323 9.68513 9.04138 9.73731 9.02193 9.79399C9.00248 9.85067 8.99586 9.91058 9.0025 9.96982L10.7182 25.3586C10.79 26.0039 11.373 26.5 12.0603 26.5H23.9397C24.627 26.5 25.2109 26.0039 25.2827 25.3586L26.9975 9.96982C27.0041 9.91058 26.9975 9.85067 26.9781 9.79399C26.9586 9.73731 26.9268 9.68513 26.8846 9.64083C26.8424 9.59653 26.7908 9.5611 26.7332 9.53683C26.6756 9.51257 26.6132 9.50002 26.5501 9.5H9.44987ZM9.94998 10.35H26.05L24.8354 21.2531V21.2257C24.6959 22.4964 23.3731 23.525 21.6001 23.525H18H14.3999C12.6269 23.525 11.3041 22.4964 11.1646 21.2257V21.2473L9.94998 10.35ZM19.7904 16.2734C19.7019 16.2731 19.6152 16.2974 19.5413 16.3433C19.4673 16.3892 19.4094 16.4547 19.3746 16.5316L18.515 18.425H17.55V17.15C17.55 17.0373 17.5026 16.9292 17.4182 16.8495C17.3338 16.7698 17.2193 16.725 17.1 16.725H13.4999C13.3806 16.725 13.2661 16.7698 13.1817 16.8495C13.0974 16.9292 13.0499 17.0373 13.0499 17.15V18.425H11.7535L12.0603 21.1493C12.1548 22.0206 13.1624 22.675 14.3999 22.675H21.6001C22.8376 22.675 23.8452 22.0206 23.9397 21.1493L24.2465 18.425H23.27L23.3913 18.1569C23.4382 18.0533 23.4397 17.9364 23.3953 17.8318C23.351 17.7272 23.2645 17.6435 23.1549 17.5991L19.9653 16.3083C19.91 16.2858 19.8505 16.2739 19.7904 16.2734ZM20.025 17.2571L22.3867 18.2125L21.3742 20.4438L19.0125 19.4875L20.025 17.2571ZM13.9499 17.575H16.65V20.125H13.9499V17.575Z" fill="white"/>
</svg>
