<svg width="24" height="24" viewBox="0 0 24 24" fill="none" xmlns="http://www.w3.org/2000/svg">
<path d="M12.0001 3C12.6261 3.00004 13.2303 3.10327 13.795 3.29492C13.2922 4.07481 13.0001 5.0031 13.0001 6C13.0001 8.73641 15.198 10.957 17.9249 10.9971C18.1046 11.8682 18.4263 12.7055 18.8829 13.4727C18.8903 13.485 18.8982 13.4975 18.9132 13.5225L19.4913 14.4854C20.0159 15.3596 20.2784 15.7974 20.2218 16.1562C20.184 16.3949 20.0604 16.6115 19.8751 16.7666C19.5965 16.9997 19.0869 17 18.0675 17H5.93173C4.91236 17 4.40266 16.9998 4.12411 16.7666C3.93892 16.6115 3.81615 16.3948 3.77841 16.1562C3.72179 15.7974 3.98335 15.3596 4.5079 14.4854L5.08603 13.5225C5.10095 13.4976 5.10896 13.485 5.1163 13.4727C5.69474 12.5007 6.06059 11.4167 6.18954 10.293C6.19117 10.2788 6.19221 10.264 6.1954 10.2354L6.44735 7.96973C6.7617 5.14063 9.15358 3 12.0001 3ZM16.2745 4.99121C16.9598 5.80518 17.4181 6.82049 17.5479 7.94629C16.6613 7.74127 16.0001 6.94899 16.0001 6C16.0001 5.63171 16.1008 5.28756 16.2745 4.99121Z" fill="white"/>
<path d="M9 17C9 17.394 9.0776 17.7841 9.22836 18.1481C9.37913 18.512 9.6001 18.8427 9.87868 19.1213C10.1573 19.3999 10.488 19.6209 10.8519 19.7716C11.2159 19.9224 11.606 20 12 20C12.394 20 12.7841 19.9224 13.1481 19.7716C13.512 19.6209 13.8427 19.3999 14.1213 19.1213C14.3999 18.8427 14.6209 18.512 14.7716 18.1481C14.9224 17.7841 15 17.394 15 17L12 17H9Z" fill="white"/>
<circle cx="18" cy="6" r="2.5" fill="white" stroke="white"/>
</svg>
