<svg width="24" height="24" viewBox="0 0 24 24" fill="none" xmlns="http://www.w3.org/2000/svg">
<g clip-path="url(#clip0_418_1788)">
<path d="M19 -0.5C17.0808 -0.5 15.5 1.19374 15.5 3.25C15.5 3.48869 15.5254 3.7214 15.5661 3.94824L7.24219 9.15088C6.63163 8.59732 5.85409 8.25 5 8.25C3.08082 8.25 1.5 9.94374 1.5 12C1.5 14.0563 3.08082 15.75 5 15.75C5.85409 15.75 6.63163 15.4027 7.24219 14.8491L15.5661 20.0493C15.5251 20.2769 15.5 20.5105 15.5 20.75C15.5 22.8063 17.0808 24.5 19 24.5C20.9192 24.5 22.5 22.8063 22.5 20.75C22.5 18.6937 20.9192 17 19 17C18.1454 17 17.3685 17.3492 16.7578 17.9033L8.43392 12.6982C8.47458 12.4714 8.5 12.2387 8.5 12C8.5 11.7613 8.47458 11.5286 8.43392 11.3018L16.7578 6.09912C17.3684 6.65268 18.1459 7 19 7C20.9192 7 22.5 5.30626 22.5 3.25C22.5 1.19374 20.9192 -0.5 19 -0.5ZM19 2C19.6581 2 20.1667 2.54484 20.1667 3.25C20.1667 3.95516 19.6581 4.5 19 4.5C18.3418 4.5 17.8333 3.95516 17.8333 3.25C17.8333 2.54484 18.3418 2 19 2ZM5 10.75C5.65815 10.75 6.16667 11.2948 6.16667 12C6.16667 12.7052 5.65815 13.25 5 13.25C4.34185 13.25 3.83333 12.7052 3.83333 12C3.83333 11.2948 4.34185 10.75 5 10.75ZM19 19.5C19.6581 19.5 20.1667 20.0448 20.1667 20.75C20.1667 21.4552 19.6581 22 19 22C18.3418 22 17.8333 21.4552 17.8333 20.75C17.8333 20.0448 18.3418 19.5 19 19.5Z" fill="white"/>
</g>
<defs>
<clipPath id="clip0_418_1788">
<rect width="24" height="24" fill="white"/>
</clipPath>
</defs>
</svg>
