<svg width="current" height="current" viewBox="0 0 82 26" fill="none" xmlns="http://www.w3.org/2000/svg">
<mask id="mask0_316_18984" style="mask-type:luminance" maskUnits="userSpaceOnUse" x="0" y="0" width="82" height="26">
<path d="M82 0H0V26H82V0Z" fill="white"/>
</mask>
<g mask="url(#mask0_316_18984)">
<path d="M2.615 22.3967H2V15.3103H2.615C2.615 17.2162 3.30175 18.8383 4.67525 20.1765C6.06925 21.5147 7.7605 22.1838 9.749 22.1838C10.569 22.1838 11.225 21.9506 11.717 21.4843C12.2295 20.9977 12.4857 20.359 12.4857 19.5682C12.4857 18.6761 11.9015 17.9157 10.733 17.2872C10.0975 16.9628 9.00075 16.4559 7.44275 15.7665C5.88475 15.0568 4.788 14.4587 4.1525 13.9721C2.8815 12.9988 2.31775 11.7113 2.46125 10.1095C2.62525 8.50772 3.24025 7.2709 4.30625 6.39903C5.37225 5.5069 6.5715 5.06083 7.904 5.06083C9.257 5.06083 10.4665 5.24331 11.5325 5.60828C12.619 5.95297 13.234 6.12531 13.3775 6.12531C13.7875 6.12531 13.9925 5.77048 13.9925 5.06083H14.6075V10.6266H13.9925C13.9925 9.16669 13.4492 7.98055 12.3627 7.06814C11.2762 6.13545 9.88225 5.6691 8.18075 5.6691C7.42225 5.6691 6.82775 5.89214 6.39725 6.33821C5.96675 6.764 5.7515 7.24048 5.7515 7.76766C5.7515 8.29483 5.82325 8.70035 5.96675 8.98421C6.11025 9.26807 6.35625 9.53165 6.70475 9.77496C7.07375 9.998 7.3915 10.1805 7.658 10.3224C7.9245 10.4643 8.34475 10.657 8.91875 10.9003C9.51325 11.1436 9.92325 11.3159 10.1487 11.4173C11.2762 11.9242 11.9425 12.2283 12.1475 12.3297C12.3525 12.4108 12.6497 12.5528 13.0392 12.7555C13.4287 12.9583 13.7157 13.1408 13.9002 13.303C14.1052 13.4652 14.3615 13.6679 14.669 13.9112C14.9765 14.1546 15.202 14.408 15.3455 14.6716C15.489 14.9149 15.6325 15.1988 15.776 15.5232C16.063 16.172 16.1655 16.9323 16.0835 17.8042C15.9195 19.4466 15.2942 20.7037 14.2077 21.5755C13.1417 22.4271 11.6965 22.8529 9.872 22.8529C8.232 22.8529 6.60225 22.4372 4.98275 21.6059C4.42925 21.3221 4.01925 21.1801 3.75275 21.1801C2.99425 21.1801 2.615 21.5857 2.615 22.3967ZM17.9167 22.3967H17.3017V15.3103H17.9167C17.9167 17.2162 18.6035 18.8383 19.977 20.1765C21.371 21.5147 23.0622 22.1838 25.0507 22.1838C25.8707 22.1838 26.5267 21.9506 27.0187 21.4843C27.5312 20.9977 27.7875 20.359 27.7875 19.5682C27.7875 18.6761 27.2032 17.9157 26.0347 17.2872C25.3992 16.9628 24.3025 16.4559 22.7445 15.7665C21.1865 15.0568 20.0897 14.4587 19.4542 13.9721C18.1832 12.9988 17.6195 11.7113 17.763 10.1095C17.927 8.50772 18.542 7.2709 19.608 6.39903C20.674 5.5069 21.8732 5.06083 23.2057 5.06083C24.5587 5.06083 25.7682 5.24331 26.8342 5.60828C27.9207 5.95297 28.5357 6.12531 28.6792 6.12531C29.0892 6.12531 29.2942 5.77048 29.2942 5.06083H29.9092V10.6266H29.2942C29.2942 9.16669 28.751 7.98055 27.6645 7.06814C26.578 6.13545 25.184 5.6691 23.4825 5.6691C22.724 5.6691 22.1295 5.89214 21.699 6.33821C21.2685 6.764 21.0532 7.24048 21.0532 7.76766C21.0532 8.29483 21.125 8.70035 21.2685 8.98421C21.412 9.26807 21.658 9.53165 22.0065 9.77496C22.3755 9.998 22.6932 10.1805 22.9597 10.3224C23.2262 10.4643 23.6465 10.657 24.2205 10.9003C24.815 11.1436 25.225 11.3159 25.4505 11.4173C26.578 11.9242 27.2442 12.2283 27.4492 12.3297C27.6542 12.4108 27.9515 12.5528 28.341 12.7555C28.7305 12.9583 29.0175 13.1408 29.202 13.303C29.407 13.4652 29.6632 13.6679 29.9707 13.9112C30.2782 14.1546 30.5037 14.408 30.6472 14.6716C30.7907 14.9149 30.9342 15.1988 31.0777 15.5232C31.3647 16.172 31.4672 16.9323 31.3852 17.8042C31.2212 19.4466 30.596 20.7037 29.5095 21.5755C28.4435 22.4271 26.9982 22.8529 25.1737 22.8529C23.5337 22.8529 21.904 22.4372 20.2845 21.6059C19.731 21.3221 19.321 21.1801 19.0545 21.1801C18.296 21.1801 17.9167 21.5857 17.9167 22.3967ZM44.3192 13.8504C44.3192 11.2551 43.9604 9.23765 43.2429 7.79807C42.5459 6.33821 41.5722 5.60828 40.3217 5.60828C39.0917 5.60828 38.1179 6.33821 37.4004 7.79807C36.6829 9.25793 36.3242 11.2957 36.3242 13.9112C36.3242 16.5268 36.6624 18.5443 37.3389 19.9636C38.0359 21.3829 39.0302 22.0926 40.3217 22.0926C42.9867 22.0926 44.3192 19.3452 44.3192 13.8504ZM49.2699 14.0329C49.2699 16.8107 48.4397 18.9498 46.7792 20.4502C45.1187 21.9506 42.9559 22.7008 40.2909 22.7008C37.6259 22.7008 35.4734 21.9608 33.8334 20.4806C32.1934 18.9802 31.3734 16.8411 31.3734 14.0633C31.3734 11.2652 32.1934 9.05517 33.8334 7.4331C35.4734 5.81103 37.6464 5 40.3524 5C43.0789 5 45.2417 5.81103 46.8407 7.4331C48.4602 9.0349 49.2699 11.2348 49.2699 14.0329ZM64.8009 14.9757C64.8009 20.2272 62.5664 22.8529 58.0974 22.8529C55.6169 22.8529 53.6796 22.2243 52.2856 20.9672C50.8916 19.7101 50.1946 17.8143 50.1946 15.2799V5.97324H48.6571V5.36497H56.6521V5.97324H55.1146V15.6144C55.1146 19.8521 56.5496 21.9709 59.4196 21.9709C60.5881 21.9709 61.6439 21.4032 62.5869 20.2677C63.5504 19.112 64.0321 17.5508 64.0321 15.584V5.97324H61.6029V5.36497H66.3384V5.97324H64.8009V14.9757ZM79.8827 16.6181H80.4977V22.3967H66.0452V21.7884H67.5827V5.97324H66.0452V5.36497H74.0402V5.97324H72.1952V21.7884H75.2702C75.9672 21.7884 76.5412 21.7377 76.9922 21.6363C77.4637 21.535 77.9455 21.3221 78.4375 20.9977C79.401 20.3691 79.8827 18.9092 79.8827 16.6181Z" fill="#1A1A1A"/>
<path d="M54.3999 11C55.5111 10.2454 58.2332 9.1889 60.2332 11C62.1821 12.7648 63.7617 11.8068 64.3552 11.0584M64.3552 11.0584C64.3707 11.0388 64.3857 11.0194 64.3999 11L64.3552 11.0584Z" stroke="#1A1A1A" stroke-linecap="round"/>
<path d="M57 14L60 3H63" stroke="#1A1A1A" stroke-width="1.3" stroke-linecap="round"/>
</g>
</svg>
